<mxfile host="app.diagrams.net" modified="2023-04-26T02:38:10.764Z" agent="Mozilla/5.0 (Windows NT 10.0; Win64; x64; rv:109.0) Gecko/20100101 Firefox/112.0" etag="xr-DZT-zdMvcPdfoAnOW" version="21.2.2" type="device">
  <diagram name="Page-1" id="jsIwJk7CFKkds2vLNk4f">
    <mxGraphModel dx="7250" dy="3430" grid="0" gridSize="10" guides="1" tooltips="1" connect="1" arrows="1" fold="1" page="1" pageScale="1" pageWidth="1654" pageHeight="1169" background="#0d1117" math="0" shadow="0">
      <root>
        <mxCell id="0" />
        <mxCell id="1" parent="0" />
        <mxCell id="pGEjHjZW6rd8UwUYCx4h-3" value="&lt;div&gt;&lt;u&gt;OrderID&lt;/u&gt;&lt;/div&gt;" style="rounded=0;whiteSpace=wrap;html=1;fillColor=#0d1117;" parent="1" vertex="1">
          <mxGeometry x="227" y="209" width="120" height="40" as="geometry" />
        </mxCell>
        <mxCell id="pGEjHjZW6rd8UwUYCx4h-4" value="CustomerID" style="rounded=0;whiteSpace=wrap;html=1;fillColor=#0d1117;" parent="1" vertex="1">
          <mxGeometry x="347" y="209" width="120" height="40" as="geometry" />
        </mxCell>
        <mxCell id="pGEjHjZW6rd8UwUYCx4h-5" value="&lt;div&gt;ProductID&lt;/div&gt;(MV)" style="rounded=0;whiteSpace=wrap;html=1;fillColor=#0d1117;" parent="1" vertex="1">
          <mxGeometry x="467" y="209" width="120" height="40" as="geometry" />
        </mxCell>
        <mxCell id="pGEjHjZW6rd8UwUYCx4h-6" value="&lt;div&gt;Quantity&lt;/div&gt;(MV)" style="rounded=0;whiteSpace=wrap;html=1;fillColor=#0d1117;" parent="1" vertex="1">
          <mxGeometry x="587" y="209" width="120" height="40" as="geometry" />
        </mxCell>
        <mxCell id="pGEjHjZW6rd8UwUYCx4h-7" value="Cost" style="rounded=0;whiteSpace=wrap;html=1;fillColor=#0d1117;" parent="1" vertex="1">
          <mxGeometry x="707" y="209" width="120" height="40" as="geometry" />
        </mxCell>
        <mxCell id="pGEjHjZW6rd8UwUYCx4h-8" value="OrderDate" style="rounded=0;whiteSpace=wrap;html=1;fillColor=#0d1117;" parent="1" vertex="1">
          <mxGeometry x="827" y="209" width="120" height="40" as="geometry" />
        </mxCell>
        <mxCell id="pGEjHjZW6rd8UwUYCx4h-9" value="PhoneNumber" style="rounded=0;whiteSpace=wrap;html=1;fillColor=#0d1117;" parent="1" vertex="1">
          <mxGeometry x="947" y="209" width="120" height="40" as="geometry" />
        </mxCell>
        <mxCell id="pGEjHjZW6rd8UwUYCx4h-10" value="Address" style="rounded=0;whiteSpace=wrap;html=1;fillColor=#0d1117;" parent="1" vertex="1">
          <mxGeometry x="1067" y="209" width="120" height="40" as="geometry" />
        </mxCell>
        <mxCell id="pGEjHjZW6rd8UwUYCx4h-11" value="&lt;u&gt;OrderID&lt;/u&gt;" style="rounded=0;whiteSpace=wrap;html=1;fillColor=#0d1117;" parent="1" vertex="1">
          <mxGeometry x="1159" y="448" width="120" height="40" as="geometry" />
        </mxCell>
        <mxCell id="pGEjHjZW6rd8UwUYCx4h-12" value="&lt;u&gt;ProductID&lt;/u&gt;" style="rounded=0;whiteSpace=wrap;html=1;fillColor=#0d1117;" parent="1" vertex="1">
          <mxGeometry x="1279" y="448" width="120" height="40" as="geometry" />
        </mxCell>
        <mxCell id="pGEjHjZW6rd8UwUYCx4h-13" value="Quantity" style="rounded=0;whiteSpace=wrap;html=1;fillColor=#0d1117;" parent="1" vertex="1">
          <mxGeometry x="1399" y="448" width="120" height="40" as="geometry" />
        </mxCell>
        <mxCell id="pGEjHjZW6rd8UwUYCx4h-15" value="" style="endArrow=classic;html=1;rounded=0;exitX=0.5;exitY=0;exitDx=0;exitDy=0;entryX=0.5;entryY=0;entryDx=0;entryDy=0;" parent="1" source="pGEjHjZW6rd8UwUYCx4h-9" target="pGEjHjZW6rd8UwUYCx4h-3" edge="1">
          <mxGeometry width="50" height="50" relative="1" as="geometry">
            <mxPoint x="647" y="439" as="sourcePoint" />
            <mxPoint x="567" y="109" as="targetPoint" />
            <Array as="points">
              <mxPoint x="1007" y="129" />
              <mxPoint x="287" y="129" />
            </Array>
          </mxGeometry>
        </mxCell>
        <mxCell id="pGEjHjZW6rd8UwUYCx4h-16" value="" style="endArrow=classic;html=1;rounded=0;entryX=0.5;entryY=0;entryDx=0;entryDy=0;exitX=0.5;exitY=0;exitDx=0;exitDy=0;" parent="1" source="-JbylaiT1LYnpS_qlPhh-6" target="pGEjHjZW6rd8UwUYCx4h-3" edge="1">
          <mxGeometry width="50" height="50" relative="1" as="geometry">
            <mxPoint x="1367" y="208" as="sourcePoint" />
            <mxPoint x="407" y="209" as="targetPoint" />
            <Array as="points">
              <mxPoint x="1367" y="129" />
              <mxPoint x="407" y="129" />
              <mxPoint x="287" y="129" />
            </Array>
          </mxGeometry>
        </mxCell>
        <mxCell id="pGEjHjZW6rd8UwUYCx4h-17" value="" style="endArrow=classic;html=1;rounded=0;exitX=0.5;exitY=0;exitDx=0;exitDy=0;entryX=0.5;entryY=0;entryDx=0;entryDy=0;" parent="1" target="pGEjHjZW6rd8UwUYCx4h-3" edge="1">
          <mxGeometry width="50" height="50" relative="1" as="geometry">
            <mxPoint x="887" y="209" as="sourcePoint" />
            <mxPoint x="167" y="209" as="targetPoint" />
            <Array as="points">
              <mxPoint x="887" y="129" />
              <mxPoint x="287" y="129" />
            </Array>
          </mxGeometry>
        </mxCell>
        <mxCell id="pGEjHjZW6rd8UwUYCx4h-18" value="" style="endArrow=none;html=1;rounded=0;entryX=0.5;entryY=0;entryDx=0;entryDy=0;" parent="1" target="pGEjHjZW6rd8UwUYCx4h-7" edge="1">
          <mxGeometry width="50" height="50" relative="1" as="geometry">
            <mxPoint x="767" y="129" as="sourcePoint" />
            <mxPoint x="697" y="379" as="targetPoint" />
          </mxGeometry>
        </mxCell>
        <mxCell id="pGEjHjZW6rd8UwUYCx4h-20" value="&lt;u&gt;OrderID&lt;/u&gt;" style="rounded=0;whiteSpace=wrap;html=1;fillColor=#0d1117;" parent="1" vertex="1">
          <mxGeometry x="124" y="448" width="120" height="40" as="geometry" />
        </mxCell>
        <mxCell id="pGEjHjZW6rd8UwUYCx4h-21" value="CustomerID" style="rounded=0;whiteSpace=wrap;html=1;fillColor=#0d1117;" parent="1" vertex="1">
          <mxGeometry x="244" y="448" width="120" height="40" as="geometry" />
        </mxCell>
        <mxCell id="pGEjHjZW6rd8UwUYCx4h-22" value="TotalCost" style="rounded=0;whiteSpace=wrap;html=1;fillColor=#0d1117;" parent="1" vertex="1">
          <mxGeometry x="364" y="448" width="120" height="40" as="geometry" />
        </mxCell>
        <mxCell id="pGEjHjZW6rd8UwUYCx4h-23" value="OrderDate" style="rounded=0;whiteSpace=wrap;html=1;fillColor=#0d1117;" parent="1" vertex="1">
          <mxGeometry x="484" y="448" width="120" height="40" as="geometry" />
        </mxCell>
        <mxCell id="pGEjHjZW6rd8UwUYCx4h-26" value="PhoneNumber" style="rounded=0;whiteSpace=wrap;html=1;fillColor=#0d1117;" parent="1" vertex="1">
          <mxGeometry x="604" y="448" width="120" height="40" as="geometry" />
        </mxCell>
        <mxCell id="pGEjHjZW6rd8UwUYCx4h-27" value="Address" style="rounded=0;whiteSpace=wrap;html=1;fillColor=#0d1117;" parent="1" vertex="1">
          <mxGeometry x="724" y="448" width="120" height="40" as="geometry" />
        </mxCell>
        <mxCell id="pGEjHjZW6rd8UwUYCx4h-29" value="" style="endArrow=none;html=1;rounded=0;entryX=0.5;entryY=0;entryDx=0;entryDy=0;" parent="1" edge="1">
          <mxGeometry width="50" height="50" relative="1" as="geometry">
            <mxPoint x="646.5" y="129" as="sourcePoint" />
            <mxPoint x="646.5" y="209" as="targetPoint" />
          </mxGeometry>
        </mxCell>
        <mxCell id="pGEjHjZW6rd8UwUYCx4h-30" value="" style="endArrow=none;html=1;rounded=0;entryX=0.5;entryY=0;entryDx=0;entryDy=0;" parent="1" edge="1">
          <mxGeometry width="50" height="50" relative="1" as="geometry">
            <mxPoint x="526.5" y="129" as="sourcePoint" />
            <mxPoint x="526.5" y="209" as="targetPoint" />
          </mxGeometry>
        </mxCell>
        <mxCell id="pGEjHjZW6rd8UwUYCx4h-31" value="" style="endArrow=none;html=1;rounded=0;entryX=0.5;entryY=0;entryDx=0;entryDy=0;" parent="1" edge="1">
          <mxGeometry width="50" height="50" relative="1" as="geometry">
            <mxPoint x="406.5" y="129" as="sourcePoint" />
            <mxPoint x="406.5" y="209" as="targetPoint" />
          </mxGeometry>
        </mxCell>
        <mxCell id="pGEjHjZW6rd8UwUYCx4h-32" value="&lt;font style=&quot;font-size: 20px;&quot;&gt;Orders &lt;/font&gt;" style="rounded=0;whiteSpace=wrap;html=1;fillColor=#0d1117;" parent="1" vertex="1">
          <mxGeometry x="747" y="51" width="160" height="40" as="geometry" />
        </mxCell>
        <mxCell id="Tlr_wZ28eMLZhZ5sebSd-1" value="Orders_Details" style="text;html=1;align=center;verticalAlign=middle;whiteSpace=wrap;rounded=0;" parent="1" vertex="1">
          <mxGeometry x="124" y="488" width="97" height="30" as="geometry" />
        </mxCell>
        <mxCell id="Tlr_wZ28eMLZhZ5sebSd-3" value="Orders" style="text;html=1;align=center;verticalAlign=middle;whiteSpace=wrap;rounded=0;" parent="1" vertex="1">
          <mxGeometry x="1159" y="488" width="56" height="30" as="geometry" />
        </mxCell>
        <mxCell id="Tlr_wZ28eMLZhZ5sebSd-6" value="" style="endArrow=classic;html=1;rounded=0;exitX=0.5;exitY=0;exitDx=0;exitDy=0;entryX=0.5;entryY=0;entryDx=0;entryDy=0;" parent="1" source="-JbylaiT1LYnpS_qlPhh-8" target="pGEjHjZW6rd8UwUYCx4h-20" edge="1">
          <mxGeometry width="50" height="50" relative="1" as="geometry">
            <mxPoint x="648" y="498" as="sourcePoint" />
            <mxPoint x="384" y="331" as="targetPoint" />
            <Array as="points">
              <mxPoint x="1021" y="376" />
              <mxPoint x="489" y="376" />
              <mxPoint x="339" y="376" />
              <mxPoint x="184" y="376" />
            </Array>
          </mxGeometry>
        </mxCell>
        <mxCell id="Tlr_wZ28eMLZhZ5sebSd-7" value="" style="endArrow=none;html=1;rounded=0;entryX=0.5;entryY=0;entryDx=0;entryDy=0;" parent="1" target="pGEjHjZW6rd8UwUYCx4h-26" edge="1">
          <mxGeometry width="50" height="50" relative="1" as="geometry">
            <mxPoint x="664" y="376" as="sourcePoint" />
            <mxPoint x="599" y="426" as="targetPoint" />
          </mxGeometry>
        </mxCell>
        <mxCell id="Tlr_wZ28eMLZhZ5sebSd-8" value="" style="endArrow=none;html=1;rounded=0;entryX=0.5;entryY=0;entryDx=0;entryDy=0;" parent="1" edge="1">
          <mxGeometry width="50" height="50" relative="1" as="geometry">
            <mxPoint x="543.55" y="376" as="sourcePoint" />
            <mxPoint x="543.55" y="448" as="targetPoint" />
          </mxGeometry>
        </mxCell>
        <mxCell id="Tlr_wZ28eMLZhZ5sebSd-9" value="" style="endArrow=none;html=1;rounded=0;entryX=0.5;entryY=0;entryDx=0;entryDy=0;" parent="1" edge="1">
          <mxGeometry width="50" height="50" relative="1" as="geometry">
            <mxPoint x="419" y="376" as="sourcePoint" />
            <mxPoint x="419" y="448" as="targetPoint" />
          </mxGeometry>
        </mxCell>
        <mxCell id="Tlr_wZ28eMLZhZ5sebSd-10" value="" style="endArrow=none;html=1;rounded=0;entryX=0.5;entryY=0;entryDx=0;entryDy=0;" parent="1" edge="1">
          <mxGeometry width="50" height="50" relative="1" as="geometry">
            <mxPoint x="303.57" y="376" as="sourcePoint" />
            <mxPoint x="303.57" y="448" as="targetPoint" />
          </mxGeometry>
        </mxCell>
        <mxCell id="Tlr_wZ28eMLZhZ5sebSd-11" value="" style="endArrow=classic;html=1;rounded=0;exitX=0.5;exitY=0;exitDx=0;exitDy=0;entryX=0.456;entryY=-0.002;entryDx=0;entryDy=0;entryPerimeter=0;" parent="1" source="pGEjHjZW6rd8UwUYCx4h-13" target="pGEjHjZW6rd8UwUYCx4h-11" edge="1">
          <mxGeometry width="50" height="50" relative="1" as="geometry">
            <mxPoint x="1164" y="536" as="sourcePoint" />
            <mxPoint x="1214" y="446" as="targetPoint" />
            <Array as="points">
              <mxPoint x="1459" y="376" />
              <mxPoint x="1214" y="376" />
            </Array>
          </mxGeometry>
        </mxCell>
        <mxCell id="Tlr_wZ28eMLZhZ5sebSd-12" value="" style="endArrow=classic;html=1;rounded=0;entryX=0.46;entryY=0.008;entryDx=0;entryDy=0;entryPerimeter=0;" parent="1" target="pGEjHjZW6rd8UwUYCx4h-12" edge="1">
          <mxGeometry width="50" height="50" relative="1" as="geometry">
            <mxPoint x="1334" y="376" as="sourcePoint" />
            <mxPoint x="1334" y="446" as="targetPoint" />
          </mxGeometry>
        </mxCell>
        <mxCell id="Tlr_wZ28eMLZhZ5sebSd-13" value="&lt;font style=&quot;font-size: 20px;&quot;&gt;First Normal Form &lt;/font&gt;" style="rounded=0;whiteSpace=wrap;html=1;fillColor=#0d1117;" parent="1" vertex="1">
          <mxGeometry x="692" y="296" width="270" height="40" as="geometry" />
        </mxCell>
        <mxCell id="Tlr_wZ28eMLZhZ5sebSd-14" value="Orders" style="text;html=1;align=center;verticalAlign=middle;whiteSpace=wrap;rounded=0;" parent="1" vertex="1">
          <mxGeometry x="227" y="249" width="60" height="30" as="geometry" />
        </mxCell>
        <mxCell id="Tlr_wZ28eMLZhZ5sebSd-15" value="" style="endArrow=none;html=1;rounded=0;" parent="1" edge="1">
          <mxGeometry width="50" height="50" relative="1" as="geometry">
            <mxPoint y="560" as="sourcePoint" />
            <mxPoint x="1650" y="560" as="targetPoint" />
          </mxGeometry>
        </mxCell>
        <mxCell id="Tlr_wZ28eMLZhZ5sebSd-16" value="&lt;u&gt;CustomerID&lt;/u&gt;" style="rounded=0;whiteSpace=wrap;html=1;fillColor=#0d1117;" parent="1" vertex="1">
          <mxGeometry x="527" y="739" width="120" height="40" as="geometry" />
        </mxCell>
        <mxCell id="Tlr_wZ28eMLZhZ5sebSd-17" value="Email" style="rounded=0;whiteSpace=wrap;html=1;fillColor=#0d1117;" parent="1" vertex="1">
          <mxGeometry x="647" y="739" width="120" height="40" as="geometry" />
        </mxCell>
        <mxCell id="Tlr_wZ28eMLZhZ5sebSd-18" value="Password" style="rounded=0;whiteSpace=wrap;html=1;fillColor=#0d1117;" parent="1" vertex="1">
          <mxGeometry x="767" y="739" width="120" height="40" as="geometry" />
        </mxCell>
        <mxCell id="Tlr_wZ28eMLZhZ5sebSd-19" value="FullName" style="rounded=0;whiteSpace=wrap;html=1;fillColor=#0d1117;" parent="1" vertex="1">
          <mxGeometry x="887" y="739" width="120" height="40" as="geometry" />
        </mxCell>
        <mxCell id="Tlr_wZ28eMLZhZ5sebSd-20" value="Gender" style="rounded=0;whiteSpace=wrap;html=1;fillColor=#0d1117;" parent="1" vertex="1">
          <mxGeometry x="1007" y="739" width="120" height="40" as="geometry" />
        </mxCell>
        <mxCell id="Tlr_wZ28eMLZhZ5sebSd-27" value="" style="endArrow=none;html=1;rounded=0;entryX=0.5;entryY=0;entryDx=0;entryDy=0;" parent="1" target="Tlr_wZ28eMLZhZ5sebSd-20" edge="1">
          <mxGeometry width="50" height="50" relative="1" as="geometry">
            <mxPoint x="1067" y="659" as="sourcePoint" />
            <mxPoint x="997" y="909" as="targetPoint" />
          </mxGeometry>
        </mxCell>
        <mxCell id="Tlr_wZ28eMLZhZ5sebSd-28" value="" style="endArrow=none;html=1;rounded=0;entryX=0.5;entryY=0;entryDx=0;entryDy=0;" parent="1" edge="1">
          <mxGeometry width="50" height="50" relative="1" as="geometry">
            <mxPoint x="946.5" y="659" as="sourcePoint" />
            <mxPoint x="946.5" y="739" as="targetPoint" />
          </mxGeometry>
        </mxCell>
        <mxCell id="Tlr_wZ28eMLZhZ5sebSd-29" value="" style="endArrow=none;html=1;rounded=0;entryX=0.5;entryY=0;entryDx=0;entryDy=0;" parent="1" edge="1">
          <mxGeometry width="50" height="50" relative="1" as="geometry">
            <mxPoint x="826.5" y="659" as="sourcePoint" />
            <mxPoint x="826.5" y="739" as="targetPoint" />
          </mxGeometry>
        </mxCell>
        <mxCell id="Tlr_wZ28eMLZhZ5sebSd-30" value="" style="endArrow=none;html=1;rounded=0;entryX=0.5;entryY=0;entryDx=0;entryDy=0;" parent="1" edge="1">
          <mxGeometry width="50" height="50" relative="1" as="geometry">
            <mxPoint x="706.5" y="659" as="sourcePoint" />
            <mxPoint x="706.5" y="739" as="targetPoint" />
          </mxGeometry>
        </mxCell>
        <mxCell id="Tlr_wZ28eMLZhZ5sebSd-31" value="&lt;font style=&quot;font-size: 20px;&quot;&gt;Customers &lt;/font&gt;" style="rounded=0;whiteSpace=wrap;html=1;fillColor=#0d1117;" parent="1" vertex="1">
          <mxGeometry x="759.5" y="585" width="135" height="40" as="geometry" />
        </mxCell>
        <mxCell id="Tlr_wZ28eMLZhZ5sebSd-32" value="Customers" style="text;html=1;align=center;verticalAlign=middle;whiteSpace=wrap;rounded=0;" parent="1" vertex="1">
          <mxGeometry x="527" y="779" width="72" height="30" as="geometry" />
        </mxCell>
        <mxCell id="Tlr_wZ28eMLZhZ5sebSd-33" value="" style="endArrow=classic;html=1;rounded=0;entryX=0.5;entryY=0;entryDx=0;entryDy=0;" parent="1" target="Tlr_wZ28eMLZhZ5sebSd-16" edge="1">
          <mxGeometry width="50" height="50" relative="1" as="geometry">
            <mxPoint x="1067" y="659" as="sourcePoint" />
            <mxPoint x="581" y="659" as="targetPoint" />
            <Array as="points">
              <mxPoint x="587" y="659" />
            </Array>
          </mxGeometry>
        </mxCell>
        <mxCell id="Tlr_wZ28eMLZhZ5sebSd-34" value="" style="endArrow=none;html=1;rounded=0;" parent="1" edge="1">
          <mxGeometry width="50" height="50" relative="1" as="geometry">
            <mxPoint y="840" as="sourcePoint" />
            <mxPoint x="1650" y="840" as="targetPoint" />
          </mxGeometry>
        </mxCell>
        <mxCell id="Tlr_wZ28eMLZhZ5sebSd-35" value="&lt;u&gt;ProductID&lt;/u&gt;" style="rounded=0;whiteSpace=wrap;html=1;fillColor=#0d1117;" parent="1" vertex="1">
          <mxGeometry x="357" y="1040" width="120" height="40" as="geometry" />
        </mxCell>
        <mxCell id="Tlr_wZ28eMLZhZ5sebSd-36" value="ProductName" style="rounded=0;whiteSpace=wrap;html=1;fillColor=#0d1117;" parent="1" vertex="1">
          <mxGeometry x="477" y="1040" width="120" height="40" as="geometry" />
        </mxCell>
        <mxCell id="Tlr_wZ28eMLZhZ5sebSd-37" value="Price" style="rounded=0;whiteSpace=wrap;html=1;fillColor=#0d1117;" parent="1" vertex="1">
          <mxGeometry x="597" y="1040" width="120" height="40" as="geometry" />
        </mxCell>
        <mxCell id="Tlr_wZ28eMLZhZ5sebSd-38" value="Description" style="rounded=0;whiteSpace=wrap;html=1;fillColor=#0d1117;" parent="1" vertex="1">
          <mxGeometry x="717" y="1040" width="120" height="40" as="geometry" />
        </mxCell>
        <mxCell id="Tlr_wZ28eMLZhZ5sebSd-39" value="ItemsInStock" style="rounded=0;whiteSpace=wrap;html=1;fillColor=#0d1117;" parent="1" vertex="1">
          <mxGeometry x="837" y="1040" width="120" height="40" as="geometry" />
        </mxCell>
        <mxCell id="Tlr_wZ28eMLZhZ5sebSd-40" value="" style="endArrow=none;html=1;rounded=0;entryX=0.5;entryY=0;entryDx=0;entryDy=0;" parent="1" target="Tlr_wZ28eMLZhZ5sebSd-39" edge="1">
          <mxGeometry width="50" height="50" relative="1" as="geometry">
            <mxPoint x="897" y="960" as="sourcePoint" />
            <mxPoint x="827" y="1210" as="targetPoint" />
          </mxGeometry>
        </mxCell>
        <mxCell id="Tlr_wZ28eMLZhZ5sebSd-41" value="" style="endArrow=none;html=1;rounded=0;entryX=0.5;entryY=0;entryDx=0;entryDy=0;" parent="1" edge="1">
          <mxGeometry width="50" height="50" relative="1" as="geometry">
            <mxPoint x="776.5" y="960" as="sourcePoint" />
            <mxPoint x="776.5" y="1040" as="targetPoint" />
          </mxGeometry>
        </mxCell>
        <mxCell id="Tlr_wZ28eMLZhZ5sebSd-42" value="" style="endArrow=none;html=1;rounded=0;entryX=0.5;entryY=0;entryDx=0;entryDy=0;" parent="1" edge="1">
          <mxGeometry width="50" height="50" relative="1" as="geometry">
            <mxPoint x="656.5" y="960" as="sourcePoint" />
            <mxPoint x="656.5" y="1040" as="targetPoint" />
          </mxGeometry>
        </mxCell>
        <mxCell id="Tlr_wZ28eMLZhZ5sebSd-43" value="" style="endArrow=none;html=1;rounded=0;entryX=0.5;entryY=0;entryDx=0;entryDy=0;" parent="1" edge="1">
          <mxGeometry width="50" height="50" relative="1" as="geometry">
            <mxPoint x="536.5" y="960" as="sourcePoint" />
            <mxPoint x="536.5" y="1040" as="targetPoint" />
          </mxGeometry>
        </mxCell>
        <mxCell id="Tlr_wZ28eMLZhZ5sebSd-44" value="&lt;font style=&quot;font-size: 20px;&quot;&gt;Products &lt;/font&gt;" style="rounded=0;whiteSpace=wrap;html=1;fillColor=#0d1117;" parent="1" vertex="1">
          <mxGeometry x="769.5" y="880" width="135" height="40" as="geometry" />
        </mxCell>
        <mxCell id="Tlr_wZ28eMLZhZ5sebSd-45" value="Products" style="text;html=1;align=center;verticalAlign=middle;whiteSpace=wrap;rounded=0;" parent="1" vertex="1">
          <mxGeometry x="357" y="1080" width="60" height="30" as="geometry" />
        </mxCell>
        <mxCell id="Tlr_wZ28eMLZhZ5sebSd-46" value="" style="endArrow=classic;html=1;rounded=0;entryX=0.5;entryY=0;entryDx=0;entryDy=0;" parent="1" target="Tlr_wZ28eMLZhZ5sebSd-35" edge="1">
          <mxGeometry width="50" height="50" relative="1" as="geometry">
            <mxPoint x="1260" y="960" as="sourcePoint" />
            <mxPoint x="411" y="960" as="targetPoint" />
            <Array as="points">
              <mxPoint x="417" y="960" />
            </Array>
          </mxGeometry>
        </mxCell>
        <mxCell id="Tlr_wZ28eMLZhZ5sebSd-47" value="Image_1" style="rounded=0;whiteSpace=wrap;html=1;fillColor=#0d1117;" parent="1" vertex="1">
          <mxGeometry x="957" y="1040" width="120" height="40" as="geometry" />
        </mxCell>
        <mxCell id="Tlr_wZ28eMLZhZ5sebSd-48" value="" style="endArrow=none;html=1;rounded=0;entryX=0.5;entryY=0;entryDx=0;entryDy=0;" parent="1" edge="1">
          <mxGeometry width="50" height="50" relative="1" as="geometry">
            <mxPoint x="1020" y="960" as="sourcePoint" />
            <mxPoint x="1020" y="1040" as="targetPoint" />
          </mxGeometry>
        </mxCell>
        <mxCell id="Tlr_wZ28eMLZhZ5sebSd-49" value="Image_2" style="rounded=0;whiteSpace=wrap;html=1;fillColor=#0d1117;" parent="1" vertex="1">
          <mxGeometry x="1077" y="1040" width="120" height="40" as="geometry" />
        </mxCell>
        <mxCell id="Tlr_wZ28eMLZhZ5sebSd-50" value="" style="endArrow=none;html=1;rounded=0;entryX=0.5;entryY=0;entryDx=0;entryDy=0;" parent="1" edge="1">
          <mxGeometry width="50" height="50" relative="1" as="geometry">
            <mxPoint x="1140" y="960" as="sourcePoint" />
            <mxPoint x="1140" y="1040" as="targetPoint" />
          </mxGeometry>
        </mxCell>
        <mxCell id="Tlr_wZ28eMLZhZ5sebSd-51" value="Image_3" style="rounded=0;whiteSpace=wrap;html=1;fillColor=#0d1117;" parent="1" vertex="1">
          <mxGeometry x="1197" y="1040" width="120" height="40" as="geometry" />
        </mxCell>
        <mxCell id="Tlr_wZ28eMLZhZ5sebSd-52" value="" style="endArrow=none;html=1;rounded=0;entryX=0.5;entryY=0;entryDx=0;entryDy=0;" parent="1" edge="1">
          <mxGeometry width="50" height="50" relative="1" as="geometry">
            <mxPoint x="1260" y="960" as="sourcePoint" />
            <mxPoint x="1260" y="1040" as="targetPoint" />
          </mxGeometry>
        </mxCell>
        <mxCell id="Tlr_wZ28eMLZhZ5sebSd-53" value="&lt;u&gt;RobotID&lt;/u&gt;" style="rounded=0;whiteSpace=wrap;html=1;fillColor=#0d1117;" parent="1" vertex="1">
          <mxGeometry x="2017" y="209" width="120" height="40" as="geometry" />
        </mxCell>
        <mxCell id="Tlr_wZ28eMLZhZ5sebSd-54" value="Speed" style="rounded=0;whiteSpace=wrap;html=1;fillColor=#0d1117;" parent="1" vertex="1">
          <mxGeometry x="2137" y="209" width="120" height="40" as="geometry" />
        </mxCell>
        <mxCell id="Tlr_wZ28eMLZhZ5sebSd-55" value="BatteryPercentage" style="rounded=0;whiteSpace=wrap;html=1;fillColor=#0d1117;" parent="1" vertex="1">
          <mxGeometry x="2257" y="209" width="120" height="40" as="geometry" />
        </mxCell>
        <mxCell id="Tlr_wZ28eMLZhZ5sebSd-56" value="CurrentLocation_X" style="rounded=0;whiteSpace=wrap;html=1;fillColor=#0d1117;" parent="1" vertex="1">
          <mxGeometry x="2377" y="209" width="120" height="40" as="geometry" />
        </mxCell>
        <mxCell id="Tlr_wZ28eMLZhZ5sebSd-57" value="CurrentLocation_Y" style="rounded=0;whiteSpace=wrap;html=1;fillColor=#0d1117;" parent="1" vertex="1">
          <mxGeometry x="2497" y="209" width="120" height="40" as="geometry" />
        </mxCell>
        <mxCell id="Tlr_wZ28eMLZhZ5sebSd-60" value="isCharging" style="rounded=0;whiteSpace=wrap;html=1;fillColor=#0d1117;" parent="1" vertex="1">
          <mxGeometry x="2617" y="209" width="120" height="40" as="geometry" />
        </mxCell>
        <mxCell id="Tlr_wZ28eMLZhZ5sebSd-62" value="" style="endArrow=classic;html=1;rounded=0;exitX=0.5;exitY=0;exitDx=0;exitDy=0;entryX=0.5;entryY=0;entryDx=0;entryDy=0;" parent="1" source="-JbylaiT1LYnpS_qlPhh-1" target="Tlr_wZ28eMLZhZ5sebSd-53" edge="1">
          <mxGeometry width="50" height="50" relative="1" as="geometry">
            <mxPoint x="2917" y="209" as="sourcePoint" />
            <mxPoint x="2197" y="209" as="targetPoint" />
            <Array as="points">
              <mxPoint x="2797" y="129" />
              <mxPoint x="2197" y="129" />
              <mxPoint x="2077" y="129" />
            </Array>
          </mxGeometry>
        </mxCell>
        <mxCell id="Tlr_wZ28eMLZhZ5sebSd-64" value="" style="endArrow=none;html=1;rounded=0;entryX=0.5;entryY=0;entryDx=0;entryDy=0;" parent="1" target="Tlr_wZ28eMLZhZ5sebSd-57" edge="1">
          <mxGeometry width="50" height="50" relative="1" as="geometry">
            <mxPoint x="2557" y="129" as="sourcePoint" />
            <mxPoint x="2487" y="379" as="targetPoint" />
          </mxGeometry>
        </mxCell>
        <mxCell id="Tlr_wZ28eMLZhZ5sebSd-65" value="" style="endArrow=none;html=1;rounded=0;entryX=0.5;entryY=0;entryDx=0;entryDy=0;" parent="1" edge="1">
          <mxGeometry width="50" height="50" relative="1" as="geometry">
            <mxPoint x="2436.5" y="129" as="sourcePoint" />
            <mxPoint x="2436.5" y="209" as="targetPoint" />
          </mxGeometry>
        </mxCell>
        <mxCell id="Tlr_wZ28eMLZhZ5sebSd-66" value="" style="endArrow=none;html=1;rounded=0;entryX=0.5;entryY=0;entryDx=0;entryDy=0;" parent="1" edge="1">
          <mxGeometry width="50" height="50" relative="1" as="geometry">
            <mxPoint x="2316.5" y="129" as="sourcePoint" />
            <mxPoint x="2316.5" y="209" as="targetPoint" />
          </mxGeometry>
        </mxCell>
        <mxCell id="Tlr_wZ28eMLZhZ5sebSd-67" value="" style="endArrow=none;html=1;rounded=0;entryX=0.5;entryY=0;entryDx=0;entryDy=0;" parent="1" edge="1">
          <mxGeometry width="50" height="50" relative="1" as="geometry">
            <mxPoint x="2196.5" y="129" as="sourcePoint" />
            <mxPoint x="2196.5" y="209" as="targetPoint" />
          </mxGeometry>
        </mxCell>
        <mxCell id="Tlr_wZ28eMLZhZ5sebSd-68" value="&lt;font style=&quot;font-size: 20px;&quot;&gt;Robots &lt;/font&gt;" style="rounded=0;whiteSpace=wrap;html=1;fillColor=#0d1117;" parent="1" vertex="1">
          <mxGeometry x="2386" y="51" width="160" height="40" as="geometry" />
        </mxCell>
        <mxCell id="Tlr_wZ28eMLZhZ5sebSd-69" value="Robots" style="text;html=1;align=center;verticalAlign=middle;whiteSpace=wrap;rounded=0;" parent="1" vertex="1">
          <mxGeometry x="2017" y="249" width="60" height="30" as="geometry" />
        </mxCell>
        <mxCell id="Tlr_wZ28eMLZhZ5sebSd-70" value="" style="endArrow=none;html=1;rounded=0;" parent="1" edge="1">
          <mxGeometry width="50" height="50" relative="1" as="geometry">
            <mxPoint x="1654" y="308" as="sourcePoint" />
            <mxPoint x="3299" y="307" as="targetPoint" />
          </mxGeometry>
        </mxCell>
        <mxCell id="Tlr_wZ28eMLZhZ5sebSd-71" value="&lt;u&gt;ShelfID&lt;/u&gt;" style="rounded=0;whiteSpace=wrap;html=1;fillColor=#0d1117;" parent="1" vertex="1">
          <mxGeometry x="2166" y="502" width="120" height="40" as="geometry" />
        </mxCell>
        <mxCell id="Tlr_wZ28eMLZhZ5sebSd-72" value="Location_X" style="rounded=0;whiteSpace=wrap;html=1;fillColor=#0d1117;" parent="1" vertex="1">
          <mxGeometry x="2286" y="502" width="120" height="40" as="geometry" />
        </mxCell>
        <mxCell id="Tlr_wZ28eMLZhZ5sebSd-73" value="Location_Y" style="rounded=0;whiteSpace=wrap;html=1;fillColor=#0d1117;" parent="1" vertex="1">
          <mxGeometry x="2406" y="502" width="120" height="40" as="geometry" />
        </mxCell>
        <mxCell id="Tlr_wZ28eMLZhZ5sebSd-74" value="ProductID" style="rounded=0;whiteSpace=wrap;html=1;fillColor=#0d1117;" parent="1" vertex="1">
          <mxGeometry x="2526" y="502" width="120" height="40" as="geometry" />
        </mxCell>
        <mxCell id="Tlr_wZ28eMLZhZ5sebSd-75" value="NumOfOrders" style="rounded=0;whiteSpace=wrap;html=1;fillColor=#0d1117;" parent="1" vertex="1">
          <mxGeometry x="2646" y="502" width="120" height="40" as="geometry" />
        </mxCell>
        <mxCell id="Tlr_wZ28eMLZhZ5sebSd-76" value="" style="endArrow=none;html=1;rounded=0;entryX=0.5;entryY=0;entryDx=0;entryDy=0;" parent="1" target="Tlr_wZ28eMLZhZ5sebSd-75" edge="1">
          <mxGeometry width="50" height="50" relative="1" as="geometry">
            <mxPoint x="2706" y="422" as="sourcePoint" />
            <mxPoint x="2636" y="672" as="targetPoint" />
          </mxGeometry>
        </mxCell>
        <mxCell id="Tlr_wZ28eMLZhZ5sebSd-77" value="" style="endArrow=none;html=1;rounded=0;entryX=0.5;entryY=0;entryDx=0;entryDy=0;" parent="1" edge="1">
          <mxGeometry width="50" height="50" relative="1" as="geometry">
            <mxPoint x="2585.5" y="422" as="sourcePoint" />
            <mxPoint x="2585.5" y="502" as="targetPoint" />
          </mxGeometry>
        </mxCell>
        <mxCell id="Tlr_wZ28eMLZhZ5sebSd-78" value="" style="endArrow=none;html=1;rounded=0;entryX=0.5;entryY=0;entryDx=0;entryDy=0;" parent="1" edge="1">
          <mxGeometry width="50" height="50" relative="1" as="geometry">
            <mxPoint x="2465.5" y="422" as="sourcePoint" />
            <mxPoint x="2465.5" y="502" as="targetPoint" />
          </mxGeometry>
        </mxCell>
        <mxCell id="Tlr_wZ28eMLZhZ5sebSd-79" value="" style="endArrow=none;html=1;rounded=0;entryX=0.5;entryY=0;entryDx=0;entryDy=0;" parent="1" edge="1">
          <mxGeometry width="50" height="50" relative="1" as="geometry">
            <mxPoint x="2345.5" y="422" as="sourcePoint" />
            <mxPoint x="2345.5" y="502" as="targetPoint" />
          </mxGeometry>
        </mxCell>
        <mxCell id="Tlr_wZ28eMLZhZ5sebSd-80" value="&lt;font style=&quot;font-size: 20px;&quot;&gt;Shelves &lt;/font&gt;" style="rounded=0;whiteSpace=wrap;html=1;fillColor=#0d1117;" parent="1" vertex="1">
          <mxGeometry x="2398.5" y="348" width="135" height="40" as="geometry" />
        </mxCell>
        <mxCell id="Tlr_wZ28eMLZhZ5sebSd-81" value="Shelves" style="text;html=1;align=center;verticalAlign=middle;whiteSpace=wrap;rounded=0;" parent="1" vertex="1">
          <mxGeometry x="2166" y="542" width="60" height="30" as="geometry" />
        </mxCell>
        <mxCell id="Tlr_wZ28eMLZhZ5sebSd-82" value="" style="endArrow=classic;html=1;rounded=0;entryX=0.5;entryY=0;entryDx=0;entryDy=0;" parent="1" target="Tlr_wZ28eMLZhZ5sebSd-71" edge="1">
          <mxGeometry width="50" height="50" relative="1" as="geometry">
            <mxPoint x="2706" y="422" as="sourcePoint" />
            <mxPoint x="2220" y="422" as="targetPoint" />
            <Array as="points">
              <mxPoint x="2226" y="422" />
            </Array>
          </mxGeometry>
        </mxCell>
        <mxCell id="Tlr_wZ28eMLZhZ5sebSd-83" value="&lt;u&gt;NotificationID&lt;/u&gt;" style="rounded=0;whiteSpace=wrap;html=1;fillColor=#0d1117;" parent="1" vertex="1">
          <mxGeometry x="1913" y="765" width="120" height="40" as="geometry" />
        </mxCell>
        <mxCell id="Tlr_wZ28eMLZhZ5sebSd-84" value="Notification" style="rounded=0;whiteSpace=wrap;html=1;fillColor=#0d1117;" parent="1" vertex="1">
          <mxGeometry x="2033" y="765" width="120" height="40" as="geometry" />
        </mxCell>
        <mxCell id="Tlr_wZ28eMLZhZ5sebSd-85" value="NotificationDateTime" style="rounded=0;whiteSpace=wrap;html=1;fillColor=#0d1117;" parent="1" vertex="1">
          <mxGeometry x="2153" y="765" width="139" height="40" as="geometry" />
        </mxCell>
        <mxCell id="Tlr_wZ28eMLZhZ5sebSd-90" value="" style="endArrow=none;html=1;rounded=0;entryX=0.5;entryY=0;entryDx=0;entryDy=0;" parent="1" edge="1">
          <mxGeometry width="50" height="50" relative="1" as="geometry">
            <mxPoint x="2222.21" y="685" as="sourcePoint" />
            <mxPoint x="2222.21" y="765" as="targetPoint" />
          </mxGeometry>
        </mxCell>
        <mxCell id="Tlr_wZ28eMLZhZ5sebSd-91" value="" style="endArrow=none;html=1;rounded=0;entryX=0.5;entryY=0;entryDx=0;entryDy=0;" parent="1" edge="1">
          <mxGeometry width="50" height="50" relative="1" as="geometry">
            <mxPoint x="2092.5" y="685" as="sourcePoint" />
            <mxPoint x="2092.5" y="765" as="targetPoint" />
          </mxGeometry>
        </mxCell>
        <mxCell id="Tlr_wZ28eMLZhZ5sebSd-92" value="&lt;font style=&quot;font-size: 20px;&quot;&gt;Notifications &lt;/font&gt;" style="rounded=0;whiteSpace=wrap;html=1;fillColor=#0d1117;" parent="1" vertex="1">
          <mxGeometry x="2022" y="614" width="161.5" height="40" as="geometry" />
        </mxCell>
        <mxCell id="Tlr_wZ28eMLZhZ5sebSd-93" value="Notifications" style="text;html=1;align=center;verticalAlign=middle;whiteSpace=wrap;rounded=0;" parent="1" vertex="1">
          <mxGeometry x="1913" y="805" width="75" height="30" as="geometry" />
        </mxCell>
        <mxCell id="Tlr_wZ28eMLZhZ5sebSd-94" value="" style="endArrow=classic;html=1;rounded=0;entryX=0.5;entryY=0;entryDx=0;entryDy=0;" parent="1" target="Tlr_wZ28eMLZhZ5sebSd-83" edge="1">
          <mxGeometry width="50" height="50" relative="1" as="geometry">
            <mxPoint x="2223" y="685" as="sourcePoint" />
            <mxPoint x="1967" y="685" as="targetPoint" />
            <Array as="points">
              <mxPoint x="1973" y="685" />
            </Array>
          </mxGeometry>
        </mxCell>
        <mxCell id="Tlr_wZ28eMLZhZ5sebSd-95" value="" style="endArrow=none;html=1;rounded=0;" parent="1" edge="1">
          <mxGeometry width="50" height="50" relative="1" as="geometry">
            <mxPoint x="1656" y="589" as="sourcePoint" />
            <mxPoint x="3295" y="589" as="targetPoint" />
          </mxGeometry>
        </mxCell>
        <mxCell id="Tlr_wZ28eMLZhZ5sebSd-96" value="&lt;u&gt;MessageID&lt;/u&gt;" style="rounded=0;whiteSpace=wrap;html=1;fillColor=#0d1117;" parent="1" vertex="1">
          <mxGeometry x="2570" y="767" width="120" height="40" as="geometry" />
        </mxCell>
        <mxCell id="Tlr_wZ28eMLZhZ5sebSd-97" value="CustomerID" style="rounded=0;whiteSpace=wrap;html=1;fillColor=#0d1117;" parent="1" vertex="1">
          <mxGeometry x="2690" y="767" width="120" height="40" as="geometry" />
        </mxCell>
        <mxCell id="Tlr_wZ28eMLZhZ5sebSd-98" value="PhoneNumber" style="rounded=0;whiteSpace=wrap;html=1;fillColor=#0d1117;" parent="1" vertex="1">
          <mxGeometry x="2810" y="767" width="120" height="40" as="geometry" />
        </mxCell>
        <mxCell id="Tlr_wZ28eMLZhZ5sebSd-99" value="Message" style="rounded=0;whiteSpace=wrap;html=1;fillColor=#0d1117;" parent="1" vertex="1">
          <mxGeometry x="2930" y="767" width="120" height="40" as="geometry" />
        </mxCell>
        <mxCell id="Tlr_wZ28eMLZhZ5sebSd-102" value="" style="endArrow=none;html=1;rounded=0;entryX=0.5;entryY=0;entryDx=0;entryDy=0;" parent="1" edge="1">
          <mxGeometry width="50" height="50" relative="1" as="geometry">
            <mxPoint x="2989.5" y="687" as="sourcePoint" />
            <mxPoint x="2989.5" y="767" as="targetPoint" />
          </mxGeometry>
        </mxCell>
        <mxCell id="Tlr_wZ28eMLZhZ5sebSd-103" value="" style="endArrow=none;html=1;rounded=0;entryX=0.5;entryY=0;entryDx=0;entryDy=0;" parent="1" edge="1">
          <mxGeometry width="50" height="50" relative="1" as="geometry">
            <mxPoint x="2869.5" y="687" as="sourcePoint" />
            <mxPoint x="2869.5" y="767" as="targetPoint" />
          </mxGeometry>
        </mxCell>
        <mxCell id="Tlr_wZ28eMLZhZ5sebSd-104" value="" style="endArrow=none;html=1;rounded=0;entryX=0.5;entryY=0;entryDx=0;entryDy=0;" parent="1" edge="1">
          <mxGeometry width="50" height="50" relative="1" as="geometry">
            <mxPoint x="2749.5" y="687" as="sourcePoint" />
            <mxPoint x="2749.5" y="767" as="targetPoint" />
          </mxGeometry>
        </mxCell>
        <mxCell id="Tlr_wZ28eMLZhZ5sebSd-105" value="&lt;font style=&quot;font-size: 20px;&quot;&gt;Customer_Services &lt;/font&gt;" style="rounded=0;whiteSpace=wrap;html=1;fillColor=#0d1117;" parent="1" vertex="1">
          <mxGeometry x="2706.5" y="614" width="208.5" height="40" as="geometry" />
        </mxCell>
        <mxCell id="Tlr_wZ28eMLZhZ5sebSd-106" value="Customer_Services" style="text;html=1;align=center;verticalAlign=middle;whiteSpace=wrap;rounded=0;" parent="1" vertex="1">
          <mxGeometry x="2570" y="807" width="123" height="30" as="geometry" />
        </mxCell>
        <mxCell id="Tlr_wZ28eMLZhZ5sebSd-107" value="" style="endArrow=classic;html=1;rounded=0;entryX=0.5;entryY=0;entryDx=0;entryDy=0;" parent="1" target="Tlr_wZ28eMLZhZ5sebSd-96" edge="1">
          <mxGeometry width="50" height="50" relative="1" as="geometry">
            <mxPoint x="2990" y="687" as="sourcePoint" />
            <mxPoint x="2624" y="687" as="targetPoint" />
            <Array as="points">
              <mxPoint x="2630" y="687" />
            </Array>
          </mxGeometry>
        </mxCell>
        <mxCell id="Tlr_wZ28eMLZhZ5sebSd-132" value="" style="endArrow=none;html=1;rounded=0;" parent="1" edge="1">
          <mxGeometry width="50" height="50" relative="1" as="geometry">
            <mxPoint x="1654" y="880" as="sourcePoint" />
            <mxPoint x="3296" y="880" as="targetPoint" />
          </mxGeometry>
        </mxCell>
        <mxCell id="Tlr_wZ28eMLZhZ5sebSd-134" value="PaymentMethod" style="rounded=0;whiteSpace=wrap;html=1;fillColor=#0d1117;" parent="1" vertex="1">
          <mxGeometry x="1187" y="209" width="120" height="40" as="geometry" />
        </mxCell>
        <mxCell id="Tlr_wZ28eMLZhZ5sebSd-137" value="" style="endArrow=none;html=1;rounded=0;entryX=0.5;entryY=0;entryDx=0;entryDy=0;" parent="1" edge="1">
          <mxGeometry width="50" height="50" relative="1" as="geometry">
            <mxPoint x="1126.7800000000002" y="129" as="sourcePoint" />
            <mxPoint x="1126.7800000000002" y="209" as="targetPoint" />
          </mxGeometry>
        </mxCell>
        <mxCell id="Tlr_wZ28eMLZhZ5sebSd-139" value="PaymentMethod" style="rounded=0;whiteSpace=wrap;html=1;fillColor=#0d1117;" parent="1" vertex="1">
          <mxGeometry x="840" y="448" width="120" height="40" as="geometry" />
        </mxCell>
        <mxCell id="Tlr_wZ28eMLZhZ5sebSd-142" value="" style="endArrow=none;html=1;rounded=0;entryX=0.5;entryY=0;entryDx=0;entryDy=0;" parent="1" edge="1">
          <mxGeometry width="50" height="50" relative="1" as="geometry">
            <mxPoint x="785" y="376" as="sourcePoint" />
            <mxPoint x="785" y="448" as="targetPoint" />
          </mxGeometry>
        </mxCell>
        <mxCell id="-JbylaiT1LYnpS_qlPhh-1" value="ShelfID" style="rounded=0;whiteSpace=wrap;html=1;fillColor=#0d1117;" parent="1" vertex="1">
          <mxGeometry x="2737" y="209" width="120" height="40" as="geometry" />
        </mxCell>
        <mxCell id="-JbylaiT1LYnpS_qlPhh-4" value="" style="endArrow=none;html=1;rounded=0;entryX=0.5;entryY=0;entryDx=0;entryDy=0;" parent="1" edge="1">
          <mxGeometry width="50" height="50" relative="1" as="geometry">
            <mxPoint x="2676.7" y="129" as="sourcePoint" />
            <mxPoint x="2676.7" y="209" as="targetPoint" />
          </mxGeometry>
        </mxCell>
        <mxCell id="-JbylaiT1LYnpS_qlPhh-6" value="OrderStatus" style="rounded=0;whiteSpace=wrap;html=1;fillColor=#0d1117;" parent="1" vertex="1">
          <mxGeometry x="1307" y="209" width="120" height="40" as="geometry" />
        </mxCell>
        <mxCell id="-JbylaiT1LYnpS_qlPhh-7" value="" style="endArrow=none;html=1;rounded=0;entryX=0.5;entryY=0;entryDx=0;entryDy=0;" parent="1" edge="1">
          <mxGeometry width="50" height="50" relative="1" as="geometry">
            <mxPoint x="1241" y="131" as="sourcePoint" />
            <mxPoint x="1241" y="211" as="targetPoint" />
          </mxGeometry>
        </mxCell>
        <mxCell id="-JbylaiT1LYnpS_qlPhh-8" value="OrderStatus" style="rounded=0;whiteSpace=wrap;html=1;fillColor=#0d1117;" parent="1" vertex="1">
          <mxGeometry x="960" y="448" width="120" height="40" as="geometry" />
        </mxCell>
        <mxCell id="-JbylaiT1LYnpS_qlPhh-9" value="" style="endArrow=none;html=1;rounded=0;entryX=0.5;entryY=0;entryDx=0;entryDy=0;" parent="1" edge="1">
          <mxGeometry width="50" height="50" relative="1" as="geometry">
            <mxPoint x="894.5" y="376" as="sourcePoint" />
            <mxPoint x="894.5" y="448" as="targetPoint" />
          </mxGeometry>
        </mxCell>
        <mxCell id="R3A02O226wdzXfY-Qj7x-13" value="&lt;u&gt;CustomerID&lt;/u&gt;" style="rounded=0;whiteSpace=wrap;html=1;fillColor=#0d1117;" vertex="1" parent="1">
          <mxGeometry x="2361" y="1029" width="120" height="40" as="geometry" />
        </mxCell>
        <mxCell id="R3A02O226wdzXfY-Qj7x-14" value="&lt;u&gt;ProductID&lt;/u&gt;" style="rounded=0;whiteSpace=wrap;html=1;fillColor=#0d1117;" vertex="1" parent="1">
          <mxGeometry x="2481" y="1029" width="120" height="40" as="geometry" />
        </mxCell>
        <mxCell id="R3A02O226wdzXfY-Qj7x-19" value="&lt;font style=&quot;font-size: 20px;&quot;&gt;Wishlist &lt;/font&gt;" style="rounded=0;whiteSpace=wrap;html=1;fillColor=#0d1117;" vertex="1" parent="1">
          <mxGeometry x="2377" y="944" width="208.5" height="40" as="geometry" />
        </mxCell>
        <mxCell id="R3A02O226wdzXfY-Qj7x-20" value="Wishlist" style="text;html=1;align=center;verticalAlign=middle;whiteSpace=wrap;rounded=0;" vertex="1" parent="1">
          <mxGeometry x="2361" y="1069" width="74" height="30" as="geometry" />
        </mxCell>
      </root>
    </mxGraphModel>
  </diagram>
</mxfile>
